<?xml version="1.0" encoding="UTF-8"?>
<svg xmlns="http://www.w3.org/2000/svg" xmlns:xlink="http://www.w3.org/1999/xlink" width="240pt" height="240pt" viewBox="0 0 240 240" version="1.1">
<g id="surface14348181">
<path style=" stroke:none;fill-rule:nonzero;fill:rgb(7.058824%,100%,93.725491%);fill-opacity:1;" d="M 120 170 C 55.5 170 5 148 5 120 C 5 92 55.5 70 120 70 C 184.5 70 235 92 235 120 C 235 148 184.5 170 120 170 Z M 120 80 C 57 80 15 100.5 15 120 C 15 139.5 57 160 120 160 C 183 160 225 139.5 225 120 C 225 100.5 183 80 120 80 Z M 120 80 "/>
<path style=" stroke:none;fill-rule:nonzero;fill:rgb(7.058824%,100%,93.725491%);fill-opacity:1;" d="M 75.5 223 C 70.5 223 66.5 222 62.5 219.5 C 38 205.5 44.5 151 76.5 95 C 91.5 69 110 47 128 33 C 147.5 18 165 13.5 177 20.5 C 189.5 27.5 194 45 191 69.5 C 188 92.5 178 119.5 163 145.5 C 148 171.5 129.5 193.5 111.5 207.5 C 98.5 217.5 86 223 75.5 223 Z M 164.5 27 C 156.5 27 146 31.5 134.5 40.5 C 117.5 54 100 75 85.5 100 C 54 154.5 51 201.5 67.5 211 C 76 216 90 211.5 105.5 199.5 C 122.5 186 140 165 154.5 140 C 169 115 178.5 89.5 181.5 68 C 184 48 181 34 172.5 29 C 170 28 167.5 27 164.5 27 Z M 164.5 27 "/>
<path style=" stroke:none;fill-rule:nonzero;fill:rgb(7.058824%,100%,93.725491%);fill-opacity:1;" d="M 165 223 C 140 223 104 192.5 77 145 C 44.5 89 38 34.5 62.5 20.5 C 87 6.5 131 39 163.5 95 C 178.5 121 188.5 148 191.5 171 C 195 195.5 190 212.5 177.5 220 C 173.5 222 169.5 223 165 223 Z M 67.5 29 C 51 38.5 54 85.5 85.5 140 C 117 194.5 156 220.5 172.5 211 C 181 206 184 192 181.5 172 C 178.5 150.5 169 125 154.5 100 C 123 45.5 84 19.5 67.5 29 Z M 67.5 29 "/>
<path style=" stroke:none;fill-rule:nonzero;fill:rgb(7.058824%,100%,93.725491%);fill-opacity:1;" d="M 140 120 C 140 131.046875 131.046875 140 120 140 C 108.953125 140 100 131.046875 100 120 C 100 108.953125 108.953125 100 120 100 C 131.046875 100 140 108.953125 140 120 Z M 140 120 "/>
</g>
</svg>
